<?xml version="1.0" encoding="UTF-8"?>
<svg xmlns="http://www.w3.org/2000/svg" width="800" height="800" viewBox="0 0 800 800">
  <!-- HTML Tag -->
  <g id="html-tag">
    <path d="M100 200 L150 150 L200 200 L150 250 Z" fill="none" stroke="#0ea5e9" stroke-width="8"/>
    <path d="M220 200 L270 150 L320 200 L270 250 Z" fill="none" stroke="#0ea5e9" stroke-width="8"/>
    <line x1="170" y1="170" x2="250" y2="230" stroke="#0ea5e9" stroke-width="8"/>
  </g>
  
  <!-- Brackets -->
  <g id="brackets">
    <path d="M400 150 C380 175, 380 225, 400 250" fill="none" stroke="#22d3ee" stroke-width="8"/>
    <path d="M450 150 C470 175, 470 225, 450 250" fill="none" stroke="#22d3ee" stroke-width="8"/>
  </g>
  
  <!-- Code Lines -->
  <g id="code-lines">
    <line x1="520" y1="160" x2="620" y2="160" stroke="#0ea5e9" stroke-width="8"/>
    <line x1="520" y1="190" x2="580" y2="190" stroke="#22d3ee" stroke-width="8"/>
    <line x1="520" y1="220" x2="600" y2="220" stroke="#0ea5e9" stroke-width="8"/>
    <line x1="540" y1="250" x2="620" y2="250" stroke="#22d3ee" stroke-width="8"/>
  </g>
  
  <!-- Function Diagram -->
  <g id="function">
    <rect x="100" y="350" width="120" height="60" rx="10" fill="none" stroke="#0ea5e9" stroke-width="6"/>
    <line x1="220" y1="380" x2="270" y2="380" stroke="#0ea5e9" stroke-width="6"/>
    <rect x="270" y="350" width="120" height="60" rx="10" fill="none" stroke="#22d3ee" stroke-width="6"/>
    <line x1="390" y1="380" x2="440" y2="380" stroke="#22d3ee" stroke-width="6"/>
    <rect x="440" y="350" width="120" height="60" rx="10" fill="none" stroke="#0ea5e9" stroke-width="6"/>
  </g>
  
  <!-- Database -->
  <g id="database">
    <ellipse cx="150" cy="500" rx="50" ry="20" fill="none" stroke="#22d3ee" stroke-width="6"/>
    <ellipse cx="150" cy="580" rx="50" ry="20" fill="none" stroke="#22d3ee" stroke-width="6"/>
    <line x1="100" y1="500" x2="100" y2="580" stroke="#22d3ee" stroke-width="6"/>
    <line x1="200" y1="500" x2="200" y2="580" stroke="#22d3ee" stroke-width="6"/>
  </g>
  
  <!-- Component Tree -->
  <g id="component-tree">
    <rect x="350" y="480" width="80" height="40" rx="8" fill="none" stroke="#0ea5e9" stroke-width="6"/>
    <line x1="390" y1="520" x2="390" y2="540" stroke="#0ea5e9" stroke-width="6"/>
    <line x1="330" y1="540" x2="450" y2="540" stroke="#0ea5e9" stroke-width="6"/>
    <line x1="330" y1="540" x2="330" y2="560" stroke="#0ea5e9" stroke-width="6"/>
    <line x1="390" y1="540" x2="390" y2="560" stroke="#0ea5e9" stroke-width="6"/>
    <line x1="450" y1="540" x2="450" y2="560" stroke="#0ea5e9" stroke-width="6"/>
    <rect x="290" y="560" width="80" height="40" rx="8" fill="none" stroke="#0ea5e9" stroke-width="6"/>
    <rect x="350" y="560" width="80" height="40" rx="8" fill="none" stroke="#0ea5e9" stroke-width="6"/>
    <rect x="410" y="560" width="80" height="40" rx="8" fill="none" stroke="#0ea5e9" stroke-width="6"/>
  </g>
  
  <!-- API Endpoints -->
  <g id="api">
    <path d="M600 480 L580 500 L600 520 L620 500 Z" fill="none" stroke="#22d3ee" stroke-width="6"/>
    <path d="M600 520 L600 560" stroke="#22d3ee" stroke-width="6"/>
    <path d="M600 560 L570 590 M600 560 L630 590" stroke="#22d3ee" stroke-width="6"/>
    <circle cx="600" cy="460" r="15" fill="none" stroke="#22d3ee" stroke-width="6"/>
  </g>
  
  <!-- Network -->
  <g id="network">
    <circle cx="150" cy="700" r="20" fill="none" stroke="#0ea5e9" stroke-width="6"/>
    <circle cx="250" cy="650" r="20" fill="none" stroke="#22d3ee" stroke-width="6"/>
    <circle cx="350" cy="700" r="20" fill="none" stroke="#0ea5e9" stroke-width="6"/>
    <circle cx="250" cy="750" r="20" fill="none" stroke="#22d3ee" stroke-width="6"/>
    <line x1="150" y1="700" x2="250" y2="650" stroke="#0ea5e9" stroke-width="4"/>
    <line x1="250" y1="650" x2="350" y2="700" stroke="#22d3ee" stroke-width="4"/>
    <line x1="350" y1="700" x2="250" y2="750" stroke="#0ea5e9" stroke-width="4"/>
    <line x1="250" y1="750" x2="150" y2="700" stroke="#22d3ee" stroke-width="4"/>
  </g>
  
  <!-- Terminal -->
  <g id="terminal">
    <rect x="500" y="650" width="150" height="100" rx="5" fill="none" stroke="#0ea5e9" stroke-width="6"/>
    <line x1="520" y1="680" x2="550" y2="680" stroke="#0ea5e9" stroke-width="6"/>
    <line x1="520" y1="700" x2="570" y2="700" stroke="#22d3ee" stroke-width="6"/>
    <line x1="520" y1="720" x2="560" y2="720" stroke="#0ea5e9" stroke-width="6"/>
  </g>
</svg> 