<svg xmlns="http://www.w3.org/2000/svg">
  <!-- HTML -->
  <symbol id="html" viewBox="0 0 24 24">
    <path fill="#E34F26" d="M1.5 0h21l-1.91 21.563L11.977 24l-8.564-2.438L1.5 0zm7.031 9.75l-.232-2.718 10.059.003.23-2.622L5.412 4.41l.698 8.01h9.126l-.326 3.426-2.91.804-2.955-.81-.188-2.11H6.248l.33 4.171L12 19.351l5.379-1.443.744-8.157H8.531z"/>
  </symbol>
  
  <!-- CSS -->
  <symbol id="css" viewBox="0 0 24 24">
    <path fill="#1572B6" d="M1.5 0h21l-1.91 21.563L11.977 24l-8.565-2.438L1.5 0zm17.09 4.413L5.41 4.41l.213 2.622 10.125.002-.255 2.716h-6.64l.24 2.573h6.182l-.366 3.523-2.91.804-2.956-.81-.188-2.11h-2.61l.29 3.855L12 19.288l5.373-1.53L18.59 4.414z"/>
  </symbol>
  
  <!-- JavaScript -->
  <symbol id="javascript" viewBox="0 0 24 24">
    <path fill="#F7DF1E" d="M0 0h24v24H0V0zm22.034 18.276c-.175-1.095-.888-2.015-3.003-2.873-.736-.345-1.554-.585-1.797-1.14-.091-.33-.105-.51-.046-.705.15-.646.915-.84 1.515-.66.39.12.75.42.976.9 1.034-.676 1.034-.676 1.755-1.125-.27-.42-.404-.601-.586-.78-.63-.705-1.469-1.065-2.834-1.034l-.705.089c-.676.165-1.32.525-1.71 1.005-1.14 1.291-.811 3.541.569 4.471 1.365 1.02 3.361 1.244 3.616 2.205.24 1.17-.87 1.545-1.966 1.41-.811-.18-1.26-.586-1.755-1.336l-1.83 1.051c.21.48.45.689.81 1.109 1.74 1.756 6.09 1.666 6.871-1.004.029-.09.24-.705.074-1.65l.046.067zm-8.983-7.245h-2.248c0 1.938-.009 3.864-.009 5.805 0 1.232.063 2.363-.138 2.711-.33.689-1.18.601-1.566.48-.396-.196-.597-.466-.83-.855-.063-.105-.11-.196-.127-.196l-1.825 1.125c.305.63.75 1.172 1.324 1.517.855.51 2.004.675 3.207.405.783-.226 1.458-.691 1.811-1.411.51-.93.402-2.07.397-3.346.012-2.054 0-4.109 0-6.179l.004-.056z"/>
  </symbol>
  
  <!-- React -->
  <symbol id="react" viewBox="0 0 24 24">
    <path fill="#61DAFB" d="M14.23 12.004a2.236 2.236 0 0 1-2.235 2.236 2.236 2.236 0 0 1-2.236-2.236 2.236 2.236 0 0 1 2.235-2.236 2.236 2.236 0 0 1 2.236 2.236zm2.648-10.69c-1.346 0-3.107.96-4.888 2.622-1.78-1.653-3.542-2.602-4.887-2.602-.41 0-.783.093-1.106.278-1.375.793-1.683 3.264-.973 6.365C1.98 8.917 0 10.42 0 12.004c0 1.59 1.99 3.097 5.043 4.03-.704 3.113-.39 5.588.988 6.38.32.187.69.275 1.102.275 1.345 0 3.107-.96 4.888-2.624 1.78 1.654 3.542 2.603 4.887 2.603.41 0 .783-.09 1.106-.275 1.374-.792 1.683-3.263.973-6.365C22.02 15.096 24 13.59 24 12.004c0-1.59-1.99-3.097-5.043-4.032.704-3.11.39-5.587-.988-6.38-.318-.184-.688-.277-1.092-.278zm-.005 1.09v.006c.225 0 .406.044.558.127.666.382.955 1.835.73 3.704-.054.46-.142.945-.25 1.44-.96-.236-2.006-.417-3.107-.534-.66-.905-1.345-1.727-2.035-2.447 1.592-1.48 3.087-2.292 4.105-2.295zm-9.77.02c1.012 0 2.514.808 4.11 2.28-.686.72-1.37 1.537-2.02 2.442-1.107.117-2.154.298-3.113.538-.112-.49-.195-.964-.254-1.42-.23-1.868.054-3.32.714-3.707.19-.09.4-.127.563-.132zm4.882 3.05c.455.468.91.992 1.36 1.564-.44-.02-.89-.034-1.345-.034-.46 0-.915.01-1.36.034.44-.572.895-1.096 1.345-1.565zM12 8.1c.74 0 1.477.034 2.202.093.406.582.802 1.203 1.183 1.86.372.64.71 1.29 1.018 1.946-.308.655-.646 1.31-1.013 1.95-.38.66-.773 1.288-1.18 1.87-.728.063-1.466.098-2.21.098-.748 0-1.488-.035-2.215-.1-.412-.582-.812-1.208-1.184-1.87-.358-.64-.7-1.29-1.018-1.946.312-.655.65-1.31 1.013-1.954.372-.66.773-1.286 1.18-1.868.728-.064 1.466-.098 2.21-.098zm-3.635.254c-.24.377-.48.763-.704 1.16-.225.39-.435.782-.635 1.174-.265-.656-.49-1.31-.676-1.947.64-.15 1.315-.283 2.015-.386zm7.26 0c.695.103 1.365.23 2.006.387-.18.632-.405 1.282-.66 1.933-.2-.39-.41-.783-.64-1.174-.225-.392-.465-.774-.705-1.146zm3.063.675c.484.15.944.317 1.375.498 1.732.74 2.852 1.708 2.852 2.476-.005.768-1.125 1.74-2.857 2.475-.42.18-.88.342-1.355.493-.28-.958-.646-1.956-1.1-2.98.45-1.017.81-2.01 1.085-2.964zm-13.395.004c.278.96.645 1.957 1.1 2.98-.45 1.017-.812 2.01-1.086 2.964-.484-.15-.944-.318-1.37-.5-1.732-.737-2.852-1.706-2.852-2.474 0-.768 1.12-1.742 2.852-2.476.42-.18.88-.342 1.356-.494zm11.678 4.28c.265.657.49 1.312.676 1.948-.64.157-1.316.29-2.016.39.24-.375.48-.762.705-1.158.225-.39.435-.788.636-1.18zm-9.945.02c.2.392.41.783.64 1.175.23.39.465.772.705 1.143-.695-.102-1.365-.23-2.006-.386.18-.63.406-1.282.66-1.933zM17.92 16.32c.112.493.2.968.254 1.423.23 1.868-.054 3.32-.714 3.708-.147.09-.338.128-.563.128-1.012 0-2.514-.807-4.11-2.28.686-.72 1.37-1.536 2.02-2.44 1.107-.118 2.154-.3 3.113-.54zm-11.83.01c.96.234 2.006.415 3.107.532.66.905 1.345 1.727 2.035 2.446-1.595 1.483-3.092 2.295-4.11 2.295-.22-.005-.406-.05-.553-.132-.666-.38-.955-1.834-.73-3.703.054-.46.142-.944.25-1.438zm4.56.64c.44.02.89.034 1.345.034.46 0 .915-.01 1.36-.034-.44.572-.895 1.095-1.345 1.565-.455-.47-.91-.993-1.36-1.565z"/>
  </symbol>
  
  <!-- Node.js -->
  <symbol id="nodejs" viewBox="0 0 24 24">
    <path fill="#339933" d="M11.998,24c-0.321,0-0.641-0.084-0.922-0.247l-2.936-1.737c-0.438-0.245-0.224-0.332-0.08-0.383 c0.585-0.203,0.703-0.25,1.328-0.604c0.065-0.037,0.151-0.023,0.218,0.017l2.256,1.339c0.082,0.045,0.197,0.045,0.272,0l8.795-5.076 c0.082-0.047,0.134-0.141,0.134-0.238V6.921c0-0.099-0.053-0.192-0.137-0.242l-8.791-5.072c-0.081-0.047-0.189-0.047-0.271,0 L3.075,6.68C2.99,6.729,2.936,6.825,2.936,6.921v10.15c0,0.097,0.054,0.189,0.139,0.235l2.409,1.392 c1.307,0.654,2.108-0.116,2.108-0.89V7.787c0-0.142,0.114-0.253,0.256-0.253h1.115c0.139,0,0.255,0.112,0.255,0.253v10.021 c0,1.745-0.95,2.745-2.604,2.745c-0.508,0-0.909,0-2.026-0.551L2.28,18.675c-0.57-0.329-0.922-0.945-0.922-1.604V6.921 c0-0.659,0.353-1.275,0.922-1.603l8.795-5.082c0.557-0.315,1.296-0.315,1.848,0l8.794,5.082c0.57,0.329,0.924,0.944,0.924,1.603 v10.15c0,0.659-0.354,1.273-0.924,1.604l-8.794,5.078C12.643,23.916,12.324,24,11.998,24z M19.099,13.993 c0-1.9-1.284-2.406-3.987-2.763c-2.731-0.361-3.009-0.548-3.009-1.187c0-0.528,0.235-1.233,2.258-1.233 c1.807,0,2.473,0.389,2.747,1.607c0.024,0.115,0.129,0.199,0.247,0.199h1.141c0.071,0,0.138-0.031,0.186-0.081 c0.048-0.054,0.074-0.123,0.067-0.196c-0.177-2.098-1.571-3.076-4.388-3.076c-2.508,0-4.004,1.058-4.004,2.833 c0,1.925,1.488,2.457,3.895,2.695c2.88,0.282,3.103,0.703,3.103,1.269c0,0.983-0.789,1.402-2.642,1.402 c-2.327,0-2.839-0.584-3.011-1.742c-0.02-0.124-0.126-0.215-0.253-0.215h-1.137c-0.141,0-0.254,0.112-0.254,0.253 c0,1.482,0.806,3.248,4.655,3.248C17.501,17.007,19.099,15.91,19.099,13.993z"/>
  </symbol>
  
  <!-- Next.js -->
  <symbol id="nextjs" viewBox="0 0 24 24">
    <path fill="currentColor" d="M11.5725 0c-.1763 0-.3098.0013-.3584.0067-.0516.0053-.2159.021-.3636.0328-3.4088.3073-6.6017 2.1463-8.624 4.9728C1.1004 6.584.3802 8.3666.1082 10.255c-.0962.659-.108.8537-.108 1.7474s.012 1.0884.108 1.7476c.652 4.506 3.8591 8.2919 8.2087 9.6945.7789.2511 1.6.4223 2.5337.5255.3636.04 1.9354.04 2.299 0 1.6117-.1783 2.9772-.577 4.3237-1.2643.2065-.1056.2464-.1337.2183-.1573-.0188-.0139-.8987-1.1938-1.9543-2.62l-1.919-2.592-2.4047-3.5583c-1.3231-1.9564-2.4117-3.556-2.4211-3.556-.0094-.0026-.0187 1.5787-.0187 3.509 0 3.3802.0093 3.5162.0747 3.579.0654.0628.0628.3678.0628h.3032l.0626-.0695c.0625-.0695.0625-.0713.0625-3.5162V12.1087l.0338-.0767c.0413-.0908.1034-.1573.2036-.2199.0656-.0435 1.3855-1.0122 2.9335-2.153C14.995 8.0031 16.3197 7.0313 16.3390 7.0237c.0198-.0076.9465 1.2894 3.1525 4.4198 1.7363 2.4658 3.1526 4.4904 3.1459 4.4992-.0094.0089-.4136.3177-.8987.6865-1.3288 1.0032-2.7404 1.752-4.333 2.3012-.6682.2295-1.377.4118-2.0854.5295-.3137.0529-1.5264.0986-1.886.0723-.3593-.026-1.081-.132-1.594-.2337-2.9835-.593-5.6412-2.1767-7.4878-4.4646-1.3533-1.6734-2.2828-3.7041-2.6371-5.7523-.1216-.7105-.1528-1.12-.1453-1.8996.0094-.8823.0962-1.5189.3414-2.5201C2.5343 5.2283 3.5112 3.6088 4.9818 2.2819c1.4562-1.311 3.2249-2.2326 5.1464-2.6774.2794-.0643.5536-.1122.6085-.1068.0549.0054.0653.0161.0587.0694-.0094.0533-.7918 1.1991-1.7389 2.5453-1.6469 2.3316-1.7243 2.443-1.7055 2.5136.0131.0532.0563.1171.1094.1573.0813.0654.0976.0654 3.0077.0654h2.9224l.086-.0427c.0756-.0374.1078-.0748.1442-.1733.0252-.0668 1.1299-2.9986 2.4585-6.5173l2.4171-6.3971.0036-.0909-.0353-.0051c-.6041-.0829-1.3812-.1274-2.0641-.1274z"/>
  </symbol>
  
  <!-- Figma -->
  <symbol id="figma" viewBox="0 0 24 24">
    <path fill="#F24E1E" d="M8 24c2.208 0 4-1.792 4-4v-4H8c-2.208 0-4 1.792-4 4s1.792 4 4 4z"/>
    <path fill="#FF7262" d="M4 12c0-2.208 1.792-4 4-4h4v8H8c-2.208 0-4-1.792-4-4z"/>
    <path fill="#1ABCFE" d="M4 4c0-2.208 1.792-4 4-4h4v8H8c-2.208 0-4-1.792-4-4z"/>
    <path fill="#0ACF83" d="M12 0h4c2.208 0 4 1.792 4 4s-1.792 4-4 4h-4V0z"/>
    <path fill="#A259FF" d="M20 12c0 2.208-1.792 4-4 4s-4-1.792-4-4 1.792-4 4-4 4 1.792 4 4z"/>
  </symbol>
  
  <!-- TypeScript -->
  <symbol id="typescript" viewBox="0 0 24 24">
    <path fill="#3178C6" d="M1.125 0C.502 0 0 .502 0 1.125v21.75C0 23.498.502 24 1.125 24h21.75c.623 0 1.125-.502 1.125-1.125V1.125C24 .502 23.498 0 22.875 0H1.125zM17.363 9.75c.612 0 1.154.037 1.627.111a6.38 6.38 0 0 1 1.306.34v2.458a3.95 3.95 0 0 0-.643-.361 5.093 5.093 0 0 0-.717-.26 5.453 5.453 0 0 0-1.426-.2c-.3 0-.573.028-.819.086a2.1 2.1 0 0 0-.623.242c-.17.104-.3.229-.393.374a.888.888 0 0 0-.14.49c0 .196.053.373.156.529.104.156.252.304.443.444s.423.27.695.39c.272.122.582.24.93.36.447.17.863.341 1.248.51.385.17.72.359 1.006.566.286.207.511.442.674.704.163.262.245.569.245.92 0 .451-.087.854-.262 1.207-.175.354-.423.654-.745.901-.323.247-.712.437-1.17.569a5.593 5.593 0 0 1-1.562.195c-.637 0-1.216-.067-1.74-.202-.523-.134-.974-.309-1.352-.52v-2.662c.376.376.842.685 1.4.926.558.24 1.175.36 1.85.36.335 0 .63-.033.886-.099.256-.066.47-.157.642-.273.172-.117.303-.259.393-.428a1.13 1.13 0 0 0-.167-1.282c-.14-.207-.333-.39-.58-.55-.245-.159-.54-.302-.883-.43a60.137 60.137 0 0 1-.852-.322 6.212 6.212 0 0 1-1.041-.5 3.217 3.217 0 0 1-.786-.648 2.659 2.659 0 0 1-.504-.8 2.91 2.91 0 0 1-.178-.954c0-.477.092-.886.276-1.229.184-.343.44-.635.767-.875.326-.24.717-.417 1.17-.532.454-.115.953-.172 1.497-.172zm-7.356 0h2.397v2.166H7.761v3.131c0 .883.085 1.535.255 1.957.17.421.508.632 1.016.632.152 0 .308-.012.467-.035.16-.023.323-.057.489-.101h.076v1.999a6.233 6.233 0 0 1-.893.24c-.36.064-.72.096-1.079.096-.553 0-1.016-.07-1.39-.212-.375-.141-.68-.333-.916-.574-.237-.241-.407-.523-.512-.846a6.334 6.334 0 0 1-.196-1.143 31.272 31.272 0 0 1-.033-1.324v-3.82H4.05V9.75h.976c.265 0 .452-.057.563-.17.111-.113.166-.3.166-.56v-1.56h2.252v2.166z"/>
  </symbol>
</svg> 